<svg width="1440" height="1024" viewBox="0 0 1440 1024" fill="none" xmlns="http://www.w3.org/2000/svg">
<g clip-path="url(#clip0)">
<path d="M1620.96 0H1169.45V414.227H1620.96V0Z" fill="#071741"/>
<path d="M1169.45 0H-172V1028.1H1169.45V0Z" fill="#071741"/>
<path d="M-170.134 227.639L-112.297 233.236L-74.6166 254.993H72.4092L95.4717 248.813L115.05 229.233H316.818L365.41 242.255H488.464L551.77 225.291H669.439L759.054 249.305H900.788L966.664 231.652H1033.25L1101.45 249.926H1169.45V1028.11H-170.134V227.639Z" fill="#550000"/>
<path opacity="0.645902" d="M-39.5339 358.251L-32.0711 395.569H79.872L91.9412 350.522L-39.5339 358.251Z" fill="#C83737"/>
<path opacity="0.645902" d="M467.067 401.432L474.529 438.749H586.473L598.542 393.703L467.067 401.432Z" fill="#C83737"/>
<path opacity="0.645902" d="M343.054 446.479L350.517 483.796H462.46L474.529 438.75L343.054 446.479Z" fill="#C83737"/>
<path opacity="0.645902" d="M591.079 356.385L598.542 393.703H710.485L722.554 348.656L591.079 356.385Z" fill="#C83737"/>
<path opacity="0.645902" d="M884.113 672.251L891.575 709.569H1003.52L1015.59 664.522L884.113 672.251Z" fill="#C83737"/>
<path opacity="0.645902" d="M818.813 746.887L826.275 784.205H938.218L950.288 739.158L818.813 746.887Z" fill="#C83737"/>
<path opacity="0.645902" d="M977.399 776.741L984.861 814.059H1096.8L1108.87 769.012L977.399 776.741Z" fill="#C83737"/>
<path opacity="0.645902" d="M158.348 821.523L165.811 858.84H277.754L289.823 813.793L158.348 821.523Z" fill="#C83737"/>
<path opacity="0.645902" d="M247.903 748.753L255.366 786.07H367.309L379.378 741.023L247.903 748.753Z" fill="#C83737"/>
<path opacity="0.645902" d="M359.846 830.852L367.309 868.17H479.252L491.321 823.123L359.846 830.852Z" fill="#C83737"/>
<path opacity="0.186885" d="M95.4717 248.813L147.038 287.347L175.024 361.982L160.098 264.956L115.049 229.233L95.4717 248.813Z" fill="#C83737"/>
<path opacity="0.35082" d="M900.788 249.305L1003.4 317.201L1046.31 391.837L759.054 249.305H900.788Z" fill="#A02C2C"/>
<path opacity="0.259016" d="M615.333 1028.1L658.245 964.665L654.513 923.615L678.768 880.7L676.902 820.991L695.559 876.968L678.768 918.017L686.231 959.067L671.305 1028.1H615.333Z" fill="#C83737"/>
<path opacity="0.403279" d="M-170.134 227.639L-112.297 233.236L-74.6166 254.993H72.4092L115.05 229.233H316.818L365.41 242.255H488.464L551.77 225.291H669.439L759.054 249.305H900.788L966.664 231.652H1033.25L1101.45 249.926H1169.45V289.213H1102.29L1043.99 255.553L993.83 242.112L968.174 248.986L942.405 255.892H904.52L856.528 268.753C856.528 268.753 798.174 268.753 790.711 268.753C783.248 268.753 745.934 268.753 745.934 268.753L704.835 245.022H675.036L635.068 234.312H589.213H546.302L529.327 244.113L511.294 254.525H467.942H402.641H355.998L317.728 244.27H262.712H230.995H147.038H111.589C111.589 244.27 100.233 267.674 88.1869 267.674C76.1406 267.674 -15.2796 267.674 -15.2796 267.674H-82.4454L-124.909 243.156L-170.134 227.639Z" fill="#C83737"/>
<path opacity="0.259016" d="M-109.357 60.1608L9.37048 37.7324L179.547 52.2449L15.9665 66.7574L-109.357 60.1608Z" fill="#00CCFF"/>
<path opacity="0.259016" d="M711.559 138.528L830.287 116.1L1000.46 130.612L836.883 145.125L711.559 138.528Z" fill="#00CCFF"/>
<path d="M1169.45 249.926L1270.2 240.7L1318.71 246.297L1380.28 244.431H1432.52L1492.22 259.359H1533.27L1568.72 244.431L1615.36 238.834V1024.37H1167.59L1169.45 249.926Z" fill="#550000"/>
<path d="M1169.45 289.213L1237.12 271.078H1270.2L1297.38 263.796H1329.9H1385.88C1385.88 263.796 1425.06 263.796 1434.38 263.796C1443.71 263.796 1479.25 275.819 1479.25 275.819H1510.88L1548.92 286.012L1590.4 274.895L1605.98 259.312L1613.44 257.313V240.7L1568.72 244.431L1533.27 259.359H1492.22L1432.52 244.431L1318.71 246.297L1270.2 240.7L1169.45 249.926V289.213Z" fill="#841616"/>
<path opacity="0.645902" d="M1404.65 593.884L1412.11 631.202H1524.05L1536.12 586.155L1404.65 593.884Z" fill="#C83737"/>
<path opacity="0.259016" d="M1622.68 355.932L1546.52 363.924L1517.51 393.203L1469.06 402.263L1424.57 442.124L1455.39 391.813L1497.61 378.242L1524.22 346.108L1618.37 309.361L1622.68 355.932Z" fill="#C83737"/>
<path opacity="0.259016" d="M1150 65.7584L1268.73 43.3301L1438.91 57.8426L1275.33 72.355L1150 65.7584Z" fill="#00CCFF"/>
<path opacity="0.259016" d="M276.847 185.175L395.574 162.747L565.75 177.26L402.17 191.772L276.847 185.175Z" fill="#00CCFF"/>
<path d="M695.879 -30.1697C693.384 -30.8871 690.981 -31.272 688.532 -30.6702C685.735 -29.9832 683.885 -28.4652 683.257 -25.7633C680.647 -14.5454 677.575 -3.43193 673.613 7.4637C670.714 15.4354 667.374 23.2452 662.615 30.4949C660.028 34.4374 657.033 38.0879 653.23 41.1562C648.132 45.2708 642.139 47.4856 635.358 47.9733C633.369 48.1156 631.368 48.1624 629.372 48.1629C591.888 48.1742 554.404 48.1711 516.92 48.1711H514.863C514.74 43.591 514.879 39.0925 514.78 34.4379C513.066 34.296 511.414 34.3937 509.658 34.3767C507.984 38.998 506.335 43.5504 504.661 48.1711H503.091C473.467 48.1711 443.844 48.1762 414.22 48.1655C409.452 48.1634 404.684 48.0802 399.916 48.0478C396.087 48.0226 393.235 45.9758 392.417 42.5925C392.244 41.8767 392.15 41.1295 392.149 40.3967C392.13 31.644 392.146 22.8917 392.124 14.1394C392.122 13.0716 392.426 12.1312 393.246 11.1996C391.669 10.455 390.14 10.0336 388.474 10.1841C387.532 10.2689 386.758 11.1009 386.629 12.0783C386.569 12.5248 386.593 12.9811 386.593 13.4328C386.592 24.4451 386.592 35.4574 386.592 46.4702V47.8787C386.484 47.9733 386.453 48.0031 386.419 48.0298C386.386 48.0565 386.353 48.0976 386.315 48.1033C386.137 48.1305 385.957 48.1649 385.777 48.1649C368.148 48.167 350.519 48.1665 332.891 48.1629C332.716 48.1629 332.54 48.1187 332.222 48.0755C332.201 47.5935 332.164 47.1156 332.164 46.6382C332.161 38.5021 332.173 30.3665 332.142 22.2303C332.14 21.4703 332.006 20.6615 331.692 19.9642C331.22 18.9153 330.265 18.2036 328.968 18.1995C327.672 18.1959 326.707 18.8927 326.23 19.9441C325.914 20.642 325.764 21.4492 325.76 22.2087C325.726 29.3171 325.74 36.426 325.74 43.535C325.74 44.6444 325.746 45.7544 325.736 46.8633C325.732 47.2626 325.687 47.6608 325.653 48.1711H323.797C308.394 48.1711 292.991 48.1207 277.589 48.1875C266.209 48.2374 257.504 43.7672 250.992 35.5612C246.929 30.441 244.843 24.6322 244.077 18.3861C243.597 14.4704 242.925 10.5737 242.331 6.66926C241.377 0.405678 240.418 -5.85689 239.459 -12.1194C238.499 -18.3825 237.523 -24.6435 236.589 -30.9097C236.439 -31.9143 236.5 -32.9431 236.427 -33.959C236.342 -35.1455 236.243 -36.3331 236.106 -37.5155C235.407 -43.5175 234.649 -49.5144 234 -55.5206C233.563 -59.5807 231.77 -63.1254 229.133 -66.334C225.008 -71.3545 219.574 -74.6161 212.698 -75.6423C204.741 -76.8293 198.062 -74.5857 192.846 -69.0349C186.389 -62.1639 185.157 -51.8017 189.77 -43.8089C192.111 -39.7519 195.653 -36.9441 200.61 -35.7858C207.416 -34.1954 214.136 -36.8973 217.447 -42.5068C218.862 -44.9055 219.6 -47.4733 219.512 -50.202C219.496 -50.7133 219.357 -51.2724 219.088 -51.7169C217.888 -53.6984 216.622 -55.646 215.376 -57.6048C215.286 -57.7467 215.176 -57.8787 215.071 -58.0134C212.61 -61.1896 209.223 -61.7903 205.597 -59.6937C201.127 -57.1079 199.373 -51.4564 201.693 -46.9173C202.281 -45.7673 203.07 -44.7 203.769 -43.5962C203.968 -43.2822 204.176 -42.9728 204.43 -42.5859C203.198 -42.1707 202.109 -42.4271 201.056 -42.7683C199.372 -43.3135 198.13 -44.3983 197.063 -45.6501C193.967 -49.2832 193.412 -53.3844 194.658 -57.6871C197.367 -67.0313 208.9 -70.8853 217.77 -65.4769C221.408 -63.259 223.868 -60.2266 225.22 -56.4758C225.539 -55.593 225.615 -54.6254 225.699 -53.6891C226.012 -50.2107 226.278 -46.7287 226.569 -43.2483C226.934 -38.9091 227.309 -34.571 227.669 -30.2319C227.706 -29.7869 227.674 -29.3378 227.674 -28.6487C227.088 -28.9739 226.643 -29.2098 226.211 -29.4637C222.761 -31.4888 219.012 -32.8213 214.906 -33.1147C207.034 -33.6779 200.68 -31.0371 195.955 -25.3378C189.862 -17.9868 189.232 -7.70888 194.349 -0.0223846C196.78 3.6292 200.268 6.07779 204.89 7.04952C212.043 8.55465 218.97 5.32959 221.956 -0.839958C223.008 -3.01517 223.547 -5.2942 223.4 -7.67651C223.371 -8.14876 223.224 -8.65338 222.98 -9.07116C221.94 -10.8502 220.869 -12.6159 219.758 -14.3594C218.832 -15.8106 217.599 -16.9904 215.863 -17.6893C214.743 -18.14 213.613 -18.2669 212.41 -18.0172C208.529 -17.2114 205.563 -14.1939 204.758 -10.3152C204.17 -7.48637 204.96 -4.94476 206.524 -2.53574C207.092 -1.65958 207.706 -0.807587 208.37 0.159523C207.1 0.458084 206.015 0.352226 204.948 -0.0259781C203.696 -0.469971 202.655 -1.18938 201.757 -2.0825C198.98 -4.84456 197.712 -8.11587 198.025 -11.8137C198.515 -17.6086 201.418 -22.0603 207.56 -24.2237C213.428 -26.2905 218.807 -25.1004 223.528 -21.4087C225.621 -19.772 227.157 -17.7479 228.334 -15.491C228.884 -14.4365 229.154 -13.3394 229.251 -12.1708C229.873 -4.67807 230.537 2.81213 231.186 10.3028C231.747 16.7699 232.281 23.2385 232.872 29.7031C233.837 40.2451 237.822 49.8443 244.036 58.742C248.563 65.225 254.063 70.9254 260.704 75.7059C270.157 82.5111 280.826 86.7732 292.835 88.211C300.171 89.0892 307.501 90.0085 314.843 90.8323C320.204 91.4335 325.58 91.9319 330.954 92.436C337.908 93.0892 344.861 93.7433 351.823 94.3209C359.011 94.9175 366.205 95.4597 373.403 95.9586C379.786 96.4011 386.175 96.7849 392.565 97.1349C400.271 97.5563 407.979 97.9499 415.69 98.289C421.268 98.5337 426.851 98.7084 432.435 98.8476C440.47 99.0475 448.506 99.2305 456.543 99.3399C463.945 99.4406 471.351 99.5105 478.754 99.4555C487.474 99.3908 496.193 99.2114 504.911 99.0177C510.176 98.9006 515.442 98.7294 520.7 98.4633C529.132 98.0357 537.567 97.6061 545.985 96.9967C554.447 96.3841 562.902 95.6544 571.338 94.7911C585.234 93.3698 599.083 91.618 612.815 89.194C623.551 87.2978 633.501 83.5825 642.661 78.192C658.92 68.6237 670.507 55.5411 678.064 39.4563C681.151 32.8849 683.125 26.0289 684.68 19.0433C687.189 7.77305 689.854 -3.46893 692.451 -14.7227C693.554 -19.5058 694.653 -24.29 695.746 -29.0752C695.818 -29.3897 695.826 -29.7165 695.879 -30.1697Z" fill="#C6C7D4"/>
<path d="M269.28 95.6838C271.99 92.5795 274.714 89.4577 277.578 86.1751C276.968 85.9125 276.469 85.6977 275.821 85.4192C273.182 88.4171 270.57 91.3863 267.913 94.4047C267.452 94.137 267.11 93.9505 266.781 93.746C263.223 91.5327 258.958 91.7742 255.751 94.3852C255.347 94.7136 254.965 95.0712 254.62 95.4505C248.366 102.34 242.1 109.222 235.881 116.137C232.77 119.596 232.634 124.255 235.553 127.645C236.664 128.935 237.924 130.146 239.269 131.24C242.28 133.689 246.295 133.575 249.223 131.04C249.843 130.503 250.374 129.879 250.921 129.276C256.717 122.896 262.496 116.505 268.306 110.135C269.901 108.387 271.044 106.483 271.421 104.211C271.87 101.495 271.286 98.9869 269.762 96.636C269.624 96.4232 269.495 96.2074 269.364 95.9916C269.344 95.9566 269.342 95.9129 269.28 95.6838Z" fill="#C6C7D4"/>
<path d="M416.393 46.7024C416.301 45.9547 416.233 45.2733 416.132 44.5955C415.32 39.1043 414.591 33.6007 413.66 28.1254C412.767 22.8767 410.002 18.552 405.27 15.3177C402.345 13.3187 398.941 12.5207 395.396 12.0854C394.609 11.9888 393.996 12.3655 393.748 13.0947C393.591 13.5551 393.543 14.0623 393.543 14.5484C393.531 22.9687 393.534 31.3895 393.535 39.8098C393.535 41.5262 393.834 43.169 395.042 44.5724C396.251 45.9794 397.784 46.8088 399.812 46.8052C404.944 46.7954 410.076 46.8036 415.208 46.7985C415.56 46.798 415.911 46.7425 416.393 46.7024Z" fill="#C6C7D4"/>
<path d="M416.029 33.9283C416.674 38.3086 417.299 42.5593 417.929 46.8296H451.274C451.315 46.6405 451.373 46.5208 451.361 46.4067C450.823 41.0722 446.719 35.7546 440.955 34.3148C439.875 34.0455 438.727 33.8759 437.608 33.8692C430.802 33.8276 423.995 33.8456 417.189 33.8476C416.879 33.8482 416.568 33.8898 416.029 33.9283Z" fill="#C6C7D4"/>
<path d="M333.777 21.9155C334.176 21.5013 334.478 21.2131 334.75 20.9027C348.982 4.64581 363.211 -11.6141 377.442 -27.872C382.346 -33.4738 387.256 -39.0704 392.162 -44.6705C392.415 -44.9598 392.692 -45.2399 392.895 -45.5564C393.232 -46.0827 393.095 -46.7065 392.61 -46.9758C392.016 -47.3062 391.689 -46.9187 391.372 -46.5585C389.225 -44.1161 387.079 -41.6721 384.936 -39.2255C374.477 -27.2842 364.019 -15.3423 353.562 -3.39886C347.136 3.94078 340.743 11.3046 334.258 18.6016C333.308 19.6704 333.359 20.6154 333.777 21.9155Z" fill="#C6C7D4"/>
<path d="M309.678 46.7333C311.121 47.0478 312.021 46.9348 312.869 45.9353C316.24 41.9667 319.667 38.0345 323.182 34.1697C324.209 33.0397 324.532 31.9199 324.218 30.5679C324.168 30.5448 324.132 30.5202 324.093 30.5124C324.053 30.5042 323.991 30.4965 323.97 30.5166C323.752 30.7221 323.522 30.922 323.327 31.1455C318.823 36.2848 314.323 41.4276 309.678 46.7333Z" fill="#C6C7D4"/>
<path d="M327.006 -140V-126.458H219.015V0.15889H327.006V48.1708H341.951V0.15889H498.984V48.1708H513.929V0.15889H626.607V-126.458H513.929V-140H498.984V-126.458H341.951V-140H327.006Z" fill="#C6C7D4"/>
</g>
<defs>
<clipPath id="clip0">
<rect width="1784" height="1024" fill="white" transform="translate(-172)"/>
</clipPath>
</defs>
</svg>
